<?xml version="1.0" encoding="UTF-8" standalone="no"?>
<!DOCTYPE svg PUBLIC "-//W3C//DTD SVG 1.1//EN" "http://www.w3.org/Graphics/SVG/1.1/DTD/svg11.dtd">
<svg width="100%" height="100%" viewBox="0 0 1500 1500" version="1.1" xmlns="http://www.w3.org/2000/svg" xmlns:xlink="http://www.w3.org/1999/xlink" xml:space="preserve" xmlns:serif="http://www.serif.com/" style="fill-rule:evenodd;clip-rule:evenodd;stroke-linejoin:round;stroke-miterlimit:2;">
    <g id="Artboard1" transform="matrix(4.25225e-17,-0.694444,0.390625,2.39189e-17,0,1500)">
        <g>
            <rect x="0" y="0" width="2160" height="3840" style="fill:none;"/>
            <g transform="matrix(0.72,-1.67674e-32,1.07854e-32,1.28,169.783,-499.042)">
                <g id="buitencirkel" transform="matrix(1.30575e-16,2.13246,-2.13246,1.30575e-16,14965.2,-40406.3)">
                    <path d="M20195.5,6064C20099.7,5968.26 19969.9,5914.48 19834.5,5914.48C19552.7,5914.48 19324,6143.23 19324,6425C19324,6706.76 19552.7,6935.52 19834.5,6935.52C20116.4,6935.52 20345,6706.95 20345,6425L20156,6425C20156,6602.59 20012.1,6746.55 19834.5,6746.55C19657,6746.55 19512.9,6602.47 19512.9,6425C19512.9,6247.53 19657,6103.44 19834.5,6103.44C19919.8,6103.44 20001.6,6137.32 20061.9,6197.62L20195.5,6064Z" style="fill:rgb(9,102,168);"/>
                    <clipPath id="_clip1">
                        <path d="M20195.5,6064C20099.7,5968.26 19969.9,5914.48 19834.5,5914.48C19552.7,5914.48 19324,6143.23 19324,6425C19324,6706.76 19552.7,6935.52 19834.5,6935.52C20116.4,6935.52 20345,6706.95 20345,6425L20156,6425C20156,6602.59 20012.1,6746.55 19834.5,6746.55C19657,6746.55 19512.9,6602.47 19512.9,6425C19512.9,6247.53 19657,6103.44 19834.5,6103.44C19919.8,6103.44 20001.6,6137.32 20061.9,6197.62L20195.5,6064Z"/>
                    </clipPath>
                    <g clip-path="url(#_clip1)">
                        <g id="BEWEGEND-ONDERDEEL" serif:id="BEWEGEND ONDERDEEL">
                            <path d="M20195.5,6064C20099.7,5968.26 19969.9,5914.48 19834.5,5914.48C19552.7,5914.48 19342.4,5986.21 19324,6425C19318.6,6551.57 19510.3,6541.94 19512.9,6425C19517.1,6240.92 19657,6103.44 19834.5,6103.44C19919.8,6103.44 20001.6,6137.32 20061.9,6197.62L20195.5,6064Z" style="fill:rgb(41,157,244);"/>
                        </g>
                    </g>
                </g>
                <g id="cirkel" transform="matrix(1.43282e-16,2.33997,-2.33997,1.43282e-16,16097.5,-44723.2)">
                    <circle cx="19920.4" cy="6339.1" r="85.9" style="fill:rgb(41,157,244);"/>
                </g>
            </g>
        </g>
    </g>
</svg>
