<?xml version="1.0" encoding="UTF-8" standalone="no"?>
<!DOCTYPE svg PUBLIC "-//W3C//DTD SVG 1.1//EN" "http://www.w3.org/Graphics/SVG/1.1/DTD/svg11.dtd">
<svg width="100%" height="100%" viewBox="0 0 100 100" version="1.1" xmlns="http://www.w3.org/2000/svg" xmlns:xlink="http://www.w3.org/1999/xlink" xml:space="preserve" xmlns:serif="http://www.serif.com/" style="fill-rule:evenodd;clip-rule:evenodd;stroke-linejoin:round;stroke-miterlimit:2;">
    <g>
        <g transform="matrix(1.22222,0,0,1.22222,-11.1109,-11.1109)">
            <path d="M88,23L12,23C10.898,23 10,23.898 10,25L10,75C10,76.102 10.898,77 12,77L88,77C89.102,77 90,76.102 90,75L90,25C90,23.898 89.102,23 88,23ZM83.199,27L50,60.199L16.801,27L83.199,27ZM14,29.801L34.199,50L14,70.199L14,29.801ZM16.898,73L37,52.898L48.602,64.5C49.398,65.302 50.602,65.302 51.398,64.5L63,52.898L83.102,73L16.898,73ZM86,70.199L65.801,50L86,29.801L86,70.199Z" style="fill:rgb(41,159,244);fill-rule:nonzero;"/>
        </g>
        <path d="M804,-510L804,1174L-980,1174L-980,-510L804,-510ZM812,-518L-988,-518L-988,1182L812,1182L812,-518Z" style="fill:rgb(0,0,255);fill-rule:nonzero;"/>
    </g>
</svg>
