<?xml version="1.0" encoding="UTF-8" standalone="no"?>
<!DOCTYPE svg PUBLIC "-//W3C//DTD SVG 1.1//EN" "http://www.w3.org/Graphics/SVG/1.1/DTD/svg11.dtd">
<svg width="100%" height="100%" viewBox="0 0 303 303" version="1.1" xmlns="http://www.w3.org/2000/svg" xmlns:xlink="http://www.w3.org/1999/xlink" xml:space="preserve" xmlns:serif="http://www.serif.com/" style="fill-rule:evenodd;clip-rule:evenodd;stroke-linejoin:round;stroke-miterlimit:2;">
    <g>
        <g transform="matrix(1.62788,0,0,1.62788,-95.1238,-95.12)">
            <path d="M196.832,64.605L106.168,64.605C81.125,64.605 60.75,84.98 60.75,110.023L60.75,192.969C60.75,218.008 81.125,238.383 106.168,238.383L196.832,238.383C221.875,238.383 242.25,218.008 242.25,192.969L242.25,110.023C242.25,84.98 221.875,64.605 196.832,64.605ZM76.77,110.023C76.77,93.812 89.957,80.625 106.168,80.625L196.832,80.625C213.043,80.625 226.23,93.812 226.23,110.023L226.23,192.969C226.23,209.18 213.043,222.363 196.832,222.363L106.168,222.363C89.957,222.363 76.77,209.18 76.77,192.969L76.77,110.023Z" style="fill:rgb(41,159,244);fill-rule:nonzero;"/>
        </g>
        <g transform="matrix(1.62788,0,0,1.62788,-95.1238,-95.12)">
            <path d="M151.496,193.746C174.789,193.746 193.746,174.789 193.746,151.496C193.746,128.203 174.797,109.242 151.496,109.242C128.19,109.242 109.242,128.203 109.242,151.496C109.242,174.789 128.19,193.746 151.496,193.746ZM151.496,125.273C165.957,125.273 177.727,137.043 177.727,151.504C177.727,165.969 165.957,177.734 151.496,177.734C137.031,177.734 125.266,165.969 125.266,151.504C125.266,137.043 137.031,125.273 151.496,125.273ZM197.672,116.066C203.945,116.066 209.059,110.961 209.059,104.68C209.059,98.395 203.953,93.293 197.672,93.293C191.391,93.293 186.285,98.395 186.285,104.68C186.285,110.961 191.391,116.066 197.672,116.066Z" style="fill:rgb(41,159,244);fill-rule:nonzero;"/>
        </g>
    </g>
</svg>
