<?xml version="1.0" encoding="UTF-8" standalone="no"?>
<!DOCTYPE svg PUBLIC "-//W3C//DTD SVG 1.1//EN" "http://www.w3.org/Graphics/SVG/1.1/DTD/svg11.dtd">
<svg width="100%" height="100%" viewBox="0 0 303 303" version="1.1" xmlns="http://www.w3.org/2000/svg" xmlns:xlink="http://www.w3.org/1999/xlink" xml:space="preserve" xmlns:serif="http://www.serif.com/" style="fill-rule:evenodd;clip-rule:evenodd;stroke-linejoin:round;stroke-miterlimit:2;">
    <g transform="matrix(1.75156,0,0,1.75156,-113.861,-113.861)">
        <path d="M74.773,102.328C70.914,98.738 68.984,94.297 68.984,89.016C68.984,83.734 70.914,79.094 74.773,75.504C78.637,71.914 83.617,70.125 89.707,70.125C95.797,70.125 100.578,71.926 104.438,75.504C108.297,79.094 110.227,83.605 110.227,89.016C110.227,94.426 108.297,98.738 104.438,102.328C100.578,105.918 95.668,107.707 89.707,107.707C83.746,107.707 78.637,105.918 74.773,102.328ZM106.977,122.906L106.977,232.875L72.234,232.875L72.234,122.906L106.977,122.906ZM222.656,133.77C230.227,141.988 234.016,153.281 234.016,167.652L234.016,230.945L201.012,230.945L201.012,172.121C201.012,164.871 199.133,159.242 195.383,155.23C191.621,151.219 186.582,149.211 180.242,149.211C173.902,149.211 168.852,151.219 165.102,155.23C161.34,159.242 159.469,164.871 159.469,172.121L159.469,230.945L126.27,230.945L126.27,122.609L159.469,122.609L159.469,136.98C162.832,132.188 167.359,128.41 173.062,125.617C178.75,122.84 185.164,121.449 192.281,121.449C204.965,121.449 215.094,125.559 222.664,133.777L222.656,133.77Z" style="fill:rgb(47,176,246);fill-rule:nonzero;"/>
    </g>
</svg>
