<?xml version="1.0" encoding="UTF-8" standalone="no"?>
<!DOCTYPE svg PUBLIC "-//W3C//DTD SVG 1.1//EN" "http://www.w3.org/Graphics/SVG/1.1/DTD/svg11.dtd">
<svg width="100%" height="100%" viewBox="0 0 25 27" version="1.1" xmlns="http://www.w3.org/2000/svg" xmlns:xlink="http://www.w3.org/1999/xlink" xml:space="preserve" xmlns:serif="http://www.serif.com/" style="fill-rule:evenodd;clip-rule:evenodd;stroke-linejoin:round;stroke-miterlimit:2;">
    <g>
        <clipPath id="_clip1">
            <rect x="0" y="0" width="25" height="27"/>
        </clipPath>
        <g clip-path="url(#_clip1)">
            <path d="M18.664,26.02C17.637,26.02 16.625,25.754 15.73,25.242L15.605,25.172C9.797,21.848 4.937,17.09 1.492,11.355L0.836,10.262C-0.551,7.957 -0.188,5.004 1.715,3.105L3.023,1.797C4.125,0.699 5.914,0.699 7.012,1.797L9.895,4.684C10.789,5.578 10.977,6.957 10.359,8.059L9.277,9.984C9.23,10.066 9.242,10.172 9.312,10.238L15.73,16.66C15.801,16.727 15.906,16.742 15.988,16.695L17.91,15.613L17.91,15.609C19.016,14.996 20.395,15.184 21.289,16.074L24.176,18.961C25.273,20.062 25.273,21.852 24.176,22.949L22.809,24.316C21.707,25.41 20.219,26.023 18.664,26.02ZM5.02,2.973C4.809,2.973 4.598,3.055 4.438,3.215L3.129,4.52C1.879,5.77 1.637,7.711 2.551,9.23L3.207,10.324C6.477,15.766 11.086,20.277 16.594,23.43L16.723,23.504C18.246,24.375 20.168,24.129 21.395,22.898L22.762,21.535C23.082,21.215 23.082,20.695 22.762,20.375L19.875,17.488C19.613,17.23 19.211,17.176 18.891,17.355L16.969,18.438C16.105,18.922 15.023,18.773 14.316,18.074L7.898,11.652C7.195,10.949 7.047,9.867 7.535,9.004L8.617,7.078C8.797,6.758 8.742,6.355 8.484,6.098L5.598,3.215C5.445,3.059 5.234,2.973 5.02,2.973Z" style="fill:rgb(47,176,246);fill-rule:nonzero;"/>
        </g>
    </g>
</svg>
