<?xml version="1.0" encoding="UTF-8" standalone="no"?>
<!DOCTYPE svg PUBLIC "-//W3C//DTD SVG 1.1//EN" "http://www.w3.org/Graphics/SVG/1.1/DTD/svg11.dtd">
<svg width="100%" height="100%" viewBox="0 0 303 303" version="1.1" xmlns="http://www.w3.org/2000/svg" xmlns:xlink="http://www.w3.org/1999/xlink" xml:space="preserve" xmlns:serif="http://www.serif.com/" style="fill-rule:evenodd;clip-rule:evenodd;stroke-linejoin:round;stroke-miterlimit:2;">
    <g transform="matrix(1.85717,0,0,1.85717,-130.975,-130.606)">
        <path d="M222.332,110.992L222.332,138.648C217.488,138.18 211.215,137.082 204.266,134.535C195.184,131.207 188.434,126.664 184.008,123.137L184.008,179.055L183.898,178.875C183.977,179.98 184.008,181.109 184.008,182.25C184.008,210.016 161.414,232.621 133.637,232.621C105.859,232.621 83.266,210.016 83.266,182.25C83.266,154.48 105.859,131.867 133.637,131.867C136.352,131.867 139.02,132.086 141.625,132.508L141.625,159.777C139.121,158.875 136.434,158.398 133.637,158.398C120.48,158.398 109.773,169.094 109.773,182.258C109.773,195.426 120.48,206.121 133.637,206.121C146.789,206.121 157.5,195.414 157.5,182.258C157.5,181.77 157.488,181.27 157.457,180.781L157.457,72.117L185.105,72.117C185.207,74.465 185.305,76.812 185.406,79.16C185.594,83.773 187.234,88.188 190.09,91.812C193.457,96.07 198.402,101.023 205.363,104.98C211.875,108.664 218,110.254 222.332,111L222.332,110.992Z" style="fill:rgb(47,176,246);fill-rule:nonzero;"/>
    </g>
</svg>
