<?xml version="1.0" encoding="UTF-8" standalone="no"?>
<!DOCTYPE svg PUBLIC "-//W3C//DTD SVG 1.1//EN" "http://www.w3.org/Graphics/SVG/1.1/DTD/svg11.dtd">
<svg width="100%" height="100%" viewBox="0 0 981 844" version="1.1" xmlns="http://www.w3.org/2000/svg" xmlns:xlink="http://www.w3.org/1999/xlink" xml:space="preserve" xmlns:serif="http://www.serif.com/" style="fill-rule:evenodd;clip-rule:evenodd;stroke-linejoin:round;stroke-miterlimit:2;">
    <g transform="matrix(1,0,0,1,-12726.3,-40299.6)">
        <g id="Artboard9" transform="matrix(0.846747,0,0,0.72848,2014.12,11014.7)">
            <rect x="12651" y="40200" width="1157.48" height="1157.48" style="fill:none;"/>
            <g transform="matrix(3.24968e-16,-6.16873,1.18099,8.40549e-17,9644.27,46040.2)">
                <g transform="matrix(1.83675e-17,1.34798,-0.28492,7.84003e-17,1975.91,-3929.34)">
                    <path d="M5433.92,4013.76C5433.92,4000.02 5423.32,3988.86 5410.27,3988.86L4864.9,3988.86C4851.84,3988.86 4841.24,4000.02 4841.24,4013.76L4861.23,4114.95C4861.23,4128.69 4871.83,4139.85 4884.88,4139.85L5430.26,4139.85C5443.31,4139.85 5453.91,4128.69 5453.91,4114.95L5433.92,4013.76Z" style="fill:rgb(13,34,55);fill-opacity:0.27;"/>
                </g>
                <g transform="matrix(1.83675e-17,1.34798,-0.28492,7.84003e-17,1975.91,-3929.34)">
                    <path d="M5453.91,3666.73C5453.91,3652.99 5443.31,3641.83 5430.26,3641.83L4884.88,3641.83C4871.83,3641.83 4861.23,3652.99 4861.23,3666.73L4861.23,4114.95C4861.23,4128.69 4871.83,4139.85 4884.88,4139.85L5430.26,4139.85C5443.31,4139.85 5453.91,4128.69 5453.91,4114.95L5453.91,3666.73Z" style="fill:rgb(231,244,254);"/>
                </g>
                <g transform="matrix(1.02041e-17,0.748868,-0.188111,5.17616e-17,1632,-840.312)">
                    <path d="M4925.51,4330.45C4925.51,4323.24 4918.9,4317.39 4910.76,4317.39L4728.66,4317.39C4720.52,4317.39 4713.92,4323.24 4713.92,4330.45C4713.92,4337.66 4720.52,4343.52 4728.66,4343.52L4910.76,4343.52C4918.9,4343.52 4925.51,4337.66 4925.51,4330.45Z" style="fill:rgb(41,157,244);"/>
                </g>
                <g transform="matrix(1.02041e-17,0.748868,-0.188111,5.17616e-17,1632,-335.855)">
                    <path d="M4925.51,4330.45C4925.51,4323.24 4918.9,4317.39 4910.76,4317.39L4728.66,4317.39C4720.52,4317.39 4713.92,4323.24 4713.92,4330.45C4713.92,4337.66 4720.52,4343.52 4728.66,4343.52L4910.76,4343.52C4918.9,4343.52 4925.51,4337.66 4925.51,4330.45Z" style="fill:rgb(41,157,244);"/>
                </g>
                <g transform="matrix(1.02041e-17,0.748868,-0.188111,5.17616e-17,1632,-585.872)">
                    <path d="M4925.51,4330.45C4925.51,4323.24 4918.9,4317.39 4910.76,4317.39L4728.66,4317.39C4720.52,4317.39 4713.92,4323.24 4713.92,4330.45C4713.92,4337.66 4720.52,4343.52 4728.66,4343.52L4910.76,4343.52C4918.9,4343.52 4925.51,4337.66 4925.51,4330.45Z" style="fill:rgb(41,157,244);"/>
                </g>
                <g transform="matrix(4.09772e-18,0.300729,-0.188111,5.17616e-17,1625.43,1272.18)">
                    <path d="M4925.51,4330.45C4925.51,4323.24 4909.05,4317.39 4888.79,4317.39L4750.64,4317.39C4730.37,4317.39 4713.92,4323.24 4713.92,4330.45C4713.92,4337.66 4730.37,4343.52 4750.64,4343.52L4888.79,4343.52C4909.05,4343.52 4925.51,4337.66 4925.51,4330.45Z" style="fill:rgb(41,157,244);"/>
                </g>
                <g transform="matrix(4.09772e-18,0.300729,-0.188111,5.17616e-17,1625.43,1776.64)">
                    <path d="M4925.51,4330.45C4925.51,4323.24 4909.05,4317.39 4888.79,4317.39L4750.64,4317.39C4730.37,4317.39 4713.92,4323.24 4713.92,4330.45C4713.92,4337.66 4730.37,4343.52 4750.64,4343.52L4888.79,4343.52C4909.05,4343.52 4925.51,4337.66 4925.51,4330.45Z" style="fill:rgb(41,157,244);"/>
                </g>
                <g transform="matrix(7.27108e-18,0.533619,-0.188111,5.17616e-17,1625.43,428.792)">
                    <path d="M4925.51,4330.45C4925.51,4323.24 4916.23,4317.39 4904.81,4317.39L4734.61,4317.39C4723.19,4317.39 4713.92,4323.24 4713.92,4330.45C4713.92,4337.66 4723.19,4343.52 4734.61,4343.52L4904.81,4343.52C4916.23,4343.52 4925.51,4337.66 4925.51,4330.45Z" style="fill:rgb(13,34,55);"/>
                </g>
                <g transform="matrix(2.3623e-18,0.173368,-0.188111,5.17616e-17,1625.43,2248.76)">
                    <path d="M4925.51,4330.45C4925.51,4323.24 4896.97,4317.39 4861.81,4317.39L4777.61,4317.39C4742.46,4317.39 4713.92,4323.24 4713.92,4330.45C4713.92,4337.66 4742.46,4343.52 4777.61,4343.52L4861.81,4343.52C4896.97,4343.52 4925.51,4337.66 4925.51,4330.45Z" style="fill:rgb(41,157,244);"/>
                </g>
                <g transform="matrix(5.53547e-18,0.406244,-0.188111,5.17616e-17,1625.43,847.283)">
                    <path d="M4925.51,4330.45C4925.51,4323.24 4913.32,4317.39 4898.32,4317.39L4741.1,4317.39C4726.1,4317.39 4713.92,4323.24 4713.92,4330.45C4713.92,4337.66 4726.1,4343.52 4741.1,4343.52L4898.32,4343.52C4913.32,4343.52 4925.51,4337.66 4925.51,4330.45Z" style="fill:rgb(13,34,55);"/>
                </g>
                <g transform="matrix(5.53547e-18,0.406244,-0.188111,5.17616e-17,1625.43,1351.74)">
                    <path d="M4925.51,4330.45C4925.51,4323.24 4913.32,4317.39 4898.32,4317.39L4741.1,4317.39C4726.1,4317.39 4713.92,4323.24 4713.92,4330.45C4713.92,4337.66 4726.1,4343.52 4741.1,4343.52L4898.32,4343.52C4913.32,4343.52 4925.51,4337.66 4925.51,4330.45Z" style="fill:rgb(13,34,55);"/>
                </g>
                <g transform="matrix(6.17992e-18,0.45354,-0.0940553,2.58808e-17,1282.43,1067.15)">
                    <path d="M5139.55,3724.55C5139.55,3721.89 5137.55,3719.74 5135.07,3719.74L4665.57,3719.74C4663.1,3719.74 4661.09,3721.89 4661.09,3724.55L4661.09,3738.97C4661.09,3741.62 4663.1,3743.78 4665.57,3743.78L5135.07,3743.78C5137.55,3743.78 5139.55,3741.62 5139.55,3738.97L5139.55,3724.55Z" style="fill:rgb(41,157,244);"/>
                </g>
                <g transform="matrix(3.98302e-18,0.292311,-0.0940553,2.58808e-17,1282.43,1648.46)">
                    <path d="M5139.55,3724.55C5139.55,3721.89 5136.44,3719.74 5132.6,3719.74L4668.05,3719.74C4664.21,3719.74 4661.09,3721.89 4661.09,3724.55L4661.09,3738.97C4661.09,3741.62 4664.21,3743.78 4668.05,3743.78L5132.6,3743.78C5136.44,3743.78 5139.55,3741.62 5139.55,3738.97L5139.55,3724.55Z" style="fill:rgb(10,50,81);"/>
                </g>
                <g transform="matrix(9.71616e-18,0.713062,-0.158677,4.36624e-17,1521.02,-662.485)">
                    <circle cx="4653.09" cy="3715.6" r="12.021" style="fill:rgb(10,50,81);"/>
                </g>
                <g transform="matrix(9.71616e-18,0.713062,-0.158677,4.36624e-17,1521.02,-633.997)">
                    <circle cx="4653.09" cy="3715.6" r="12.021" style="fill:rgb(10,50,81);"/>
                </g>
                <g transform="matrix(9.71616e-18,0.713062,-0.158677,4.36624e-17,1521.02,-605.967)">
                    <circle cx="4653.09" cy="3715.6" r="12.021" style="fill:rgb(10,50,81);"/>
                </g>
                <g transform="matrix(1.15184e-17,0.84533,-0.237598,6.53789e-17,1817.77,-1279.43)">
                    <rect x="4617.02" y="3759.6" width="945.091" height="255.386" style="fill:rgb(13,34,55);"/>
                </g>
                <g transform="matrix(1.60671e-17,1.17915,-0.155197,4.27048e-17,1500.62,-2847.24)">
                    <path d="M4902.72,3844.88C4902.72,3837.85 4899.35,3832.15 4895.19,3832.15L4696.08,3832.15C4691.92,3832.15 4688.55,3837.85 4688.55,3844.88L4688.55,3870.32C4688.55,3877.34 4691.92,3883.04 4696.08,3883.04L4895.19,3883.04C4899.35,3883.04 4902.72,3877.34 4902.72,3870.32L4902.72,3844.88Z" style="fill:rgb(41,157,244);"/>
                </g>
                <g transform="matrix(2.33666e-17,1.71486,-0.0775984,2.13524e-17,1191.48,-5358.92)">
                    <path d="M4902.72,3844.88C4902.72,3837.85 4901.56,3832.15 4900.13,3832.15L4691.14,3832.15C4689.71,3832.15 4688.55,3837.85 4688.55,3844.88L4688.55,3870.32C4688.55,3877.34 4689.71,3883.04 4691.14,3883.04L4900.13,3883.04C4901.56,3883.04 4902.72,3877.34 4902.72,3870.32L4902.72,3844.88Z" style="fill:rgb(225,241,253);"/>
                </g>
                <g transform="matrix(2.33666e-17,1.71486,-0.0775984,2.13524e-17,1183.76,-5358.92)">
                    <path d="M4902.72,3844.88C4902.72,3837.85 4901.56,3832.15 4900.13,3832.15L4691.14,3832.15C4689.71,3832.15 4688.55,3837.85 4688.55,3844.88L4688.55,3870.32C4688.55,3877.34 4689.71,3883.04 4691.14,3883.04L4900.13,3883.04C4901.56,3883.04 4902.72,3877.34 4902.72,3870.32L4902.72,3844.88Z" style="fill:rgb(225,241,253);"/>
                </g>
                <g transform="matrix(1.08126e-17,0.793528,-0.140983,3.87936e-17,1447.46,-1002.74)">
                    <path d="M5320,3887.44L5396.67,4024.97L5243.34,4024.97L5320,3887.44Z" style="fill:rgb(225,241,253);"/>
                </g>
                <g transform="matrix(1.20578e-17,0.884911,-0.188111,5.17616e-17,1637.15,-1404.23)">
                    <path d="M5320,3887.44L5396.67,4024.97L5243.34,4024.97L5320,3887.44Z" style="fill:rgb(41,157,244);"/>
                </g>
                <g transform="matrix(1.15184e-17,0.84533,-0.188111,5.17616e-17,1629.25,-1279.43)">
                    <circle cx="5355.44" cy="3843.28" r="14.238" style="fill:rgb(225,241,253);"/>
                </g>
                <g transform="matrix(1.15184e-17,0.84533,-0.188111,5.17616e-17,1633.53,-1319.76)">
                    <circle cx="4836.89" cy="4230.1" r="75.273" style="fill:rgb(13,34,55);"/>
                </g>
                <g transform="matrix(1.15184e-17,0.84533,-0.188111,5.17616e-17,1633.53,-1065.84)">
                    <circle cx="4836.89" cy="4230.1" r="75.273" style="fill:rgb(13,34,55);"/>
                </g>
                <g transform="matrix(1.15184e-17,0.84533,-0.188111,5.17616e-17,1633.53,-815.301)">
                    <circle cx="4836.89" cy="4230.1" r="75.273" style="fill:rgb(13,34,55);"/>
                </g>
                <g transform="matrix(6.54026e-18,0.479985,-0.235846,6.48967e-17,1738.96,828.74)">
                    <path d="M5464.99,3941.83C5464.99,3934.43 5451.71,3928.41 5435.35,3928.41L4901.94,3928.41C4885.59,3928.41 4872.31,3934.43 4872.31,3941.83L4874.43,3996.48L4946.6,4126.43C4946.6,4133.84 4959.88,4139.85 4976.24,4139.85L5509.65,4139.85C5526,4139.85 5539.28,4133.84 5539.28,4126.43L5468.56,3999.09L5464.99,3941.83Z" style="fill:rgb(13,34,55);fill-opacity:0.18;"/>
                </g>
                <g transform="matrix(6.54026e-18,0.479985,-0.235846,6.48967e-17,1738.96,869.159)">
                    <path d="M5453.91,3655.25C5453.91,3647.84 5440.63,3641.83 5424.28,3641.83L4890.87,3641.83C4874.51,3641.83 4861.23,3647.84 4861.23,3655.25L4861.23,4126.43C4861.23,4133.84 4874.51,4139.85 4890.87,4139.85L5424.28,4139.85C5440.63,4139.85 5453.91,4133.84 5453.91,4126.43L5453.91,3655.25Z" style="fill:rgb(231,244,254);"/>
                </g>
                <g transform="matrix(3.23569e-18,0.237465,-0.0940553,2.58808e-17,1225.95,2252.82)">
                    <path d="M5139.55,3724.55C5139.55,3721.89 5135.72,3719.74 5130.99,3719.74L4669.65,3719.74C4664.93,3719.74 4661.09,3721.89 4661.09,3724.55L4661.09,3738.97C4661.09,3741.62 4664.93,3743.78 4669.65,3743.78L5130.99,3743.78C5135.72,3743.78 5139.55,3741.62 5139.55,3738.97L5139.55,3724.55Z" style="fill:rgb(41,157,244);"/>
                </g>
                <g transform="matrix(2.52727e-18,0.185475,-0.0940553,2.58808e-17,1225.95,2385.2)">
                    <path d="M5139.55,3724.55C5139.55,3721.89 5134.64,3719.74 5128.6,3719.74L4672.05,3719.74C4666,3719.74 4661.09,3721.89 4661.09,3724.55L4661.09,3738.97C4661.09,3741.62 4666,3743.78 4672.05,3743.78L5128.6,3743.78C5134.64,3743.78 5139.55,3741.62 5139.55,3738.97L5139.55,3724.55Z" style="fill:rgb(10,50,81);"/>
                </g>
                <g transform="matrix(1.61839e-17,1.18773,-0.318319,8.75905e-17,3362.19,-2375.19)">
                    <rect x="4696.09" y="7830.54" width="239.513" height="117.083" style="fill:rgb(13,34,55);"/>
                </g>
                <g transform="matrix(9.78076e-18,0.717803,-0.106143,2.92069e-17,1267.58,-132.528)">
                    <path d="M4902.72,3844.88C4902.72,3837.85 4898.93,3832.15 4894.26,3832.15L4697.01,3832.15C4692.34,3832.15 4688.55,3837.85 4688.55,3844.88L4688.55,3870.32C4688.55,3877.34 4692.34,3883.04 4697.01,3883.04L4894.26,3883.04C4898.93,3883.04 4902.72,3877.34 4902.72,3870.32L4902.72,3844.88Z" style="fill:rgb(41,157,244);"/>
                </g>
                <g transform="matrix(1.42243e-17,1.04391,-0.0775984,2.13524e-17,1150.09,-1661.5)">
                    <path d="M4902.72,3844.88C4902.72,3837.85 4900.81,3832.15 4898.47,3832.15L4692.8,3832.15C4690.46,3832.15 4688.55,3837.85 4688.55,3844.88L4688.55,3870.32C4688.55,3877.34 4690.46,3883.04 4692.8,3883.04L4898.47,3883.04C4900.81,3883.04 4902.72,3877.34 4902.72,3870.32L4902.72,3844.88Z" style="fill:rgb(225,241,253);"/>
                </g>
                <g transform="matrix(1.42243e-17,1.04391,-0.0775984,2.13524e-17,1142.9,-1661.5)">
                    <path d="M4902.72,3844.88C4902.72,3837.85 4900.81,3832.15 4898.47,3832.15L4692.8,3832.15C4690.46,3832.15 4688.55,3837.85 4688.55,3844.88L4688.55,3870.32C4688.55,3877.34 4690.46,3883.04 4692.8,3883.04L4898.47,3883.04C4900.81,3883.04 4902.72,3877.34 4902.72,3870.32L4902.72,3844.88Z" style="fill:rgb(225,241,253);"/>
                </g>
                <g transform="matrix(1.111e-17,0.815357,-0.204812,5.63572e-17,1669.38,-585.069)">
                    <path d="M4925.51,4330.45C4925.51,4323.24 4918.9,4317.39 4910.76,4317.39L4728.66,4317.39C4720.52,4317.39 4713.92,4323.24 4713.92,4330.45C4713.92,4337.66 4720.52,4343.52 4728.66,4343.52L4910.76,4343.52C4918.9,4343.52 4925.51,4337.66 4925.51,4330.45Z" style="fill:rgb(41,157,244);"/>
                </g>
                <g transform="matrix(4.46154e-18,0.327429,-0.204812,5.63572e-17,1662.22,1714.98)">
                    <path d="M4925.51,4330.45C4925.51,4323.24 4909.05,4317.39 4888.79,4317.39L4750.64,4317.39C4730.37,4317.39 4713.92,4323.24 4713.92,4330.45C4713.92,4337.66 4730.37,4343.52 4750.64,4343.52L4888.79,4343.52C4909.05,4343.52 4925.51,4337.66 4925.51,4330.45Z" style="fill:rgb(41,157,244);"/>
                </g>
                <g transform="matrix(6.02694e-18,0.442313,-0.204812,5.63572e-17,1662.22,1252.36)">
                    <path d="M4925.51,4330.45C4925.51,4323.24 4913.32,4317.39 4898.32,4317.39L4741.1,4317.39C4726.1,4317.39 4713.92,4323.24 4713.92,4330.45C4713.92,4337.66 4726.1,4343.52 4741.1,4343.52L4898.32,4343.52C4913.32,4343.52 4925.51,4337.66 4925.51,4330.45Z" style="fill:rgb(13,34,55);"/>
                </g>
                <g transform="matrix(1.25411e-17,0.920384,-0.204812,5.63572e-17,1671.05,-1107.08)">
                    <circle cx="4836.89" cy="4230.1" r="75.273" style="fill:rgb(13,34,55);"/>
                </g>
            </g>
        </g>
    </g>
</svg>
